<?xml version="1.0" encoding="UTF-8" standalone="no" ?>
<!DOCTYPE svg PUBLIC "-//W3C//DTD SVG 1.1//EN" "http://www.w3.org/Graphics/SVG/1.1/DTD/svg11.dtd">
<svg xmlns="http://www.w3.org/2000/svg" xmlns:xlink="http://www.w3.org/1999/xlink" version="1.1" width="641.6062109375" height="158.51000000000002" xml:space="preserve">
<desc>Created with Fabric.js 1.6.0-rc.1</desc>
<defs></defs>
<g style="stroke: none; stroke-width: 1; stroke-dasharray: none; stroke-linecap: butt; stroke-linejoin: miter; stroke-miterlimit: 10; fill: none; fill-rule: nonzero; opacity: 1;" transform="translate(65.79999999999994 10) scale(0.27 0.27)" >
  <path d="M 82.722 191.216 c -39.819 0 -72.099 32.279 -72.099 72.098 l -0.174 5.223 v 170.353 c 0 34.605 28.054 62.66 62.66 62.66 h 365.781 c 34.606 0 62.66 -28.056 62.66 -62.66 V 253.877 c 0 -34.605 -28.054 -62.66 -62.66 -62.66 H 82.722 z" style="stroke: none; stroke-width: 1; stroke-dasharray: none; stroke-linecap: butt; stroke-linejoin: miter; stroke-miterlimit: 10; fill: #1d1d1f; fill-rule: nonzero; opacity: 1;" transform=" matrix(1 0 0 1 0 0) " stroke-linecap="round" />
  <circle cx="327.053" cy="346.383" r="120.163" style="stroke: none; stroke-width: 1; stroke-dasharray: none; stroke-linecap: butt; stroke-linejoin: miter; stroke-miterlimit: 10; fill: #0e0e0f; fill-rule: nonzero; opacity: 1;" transform="  matrix(1 0 0 1 0 0) "/>
  <circle cx="327.048" cy="346.38800000000003" r="72.098" style="stroke: none; stroke-width: 1; stroke-dasharray: none; stroke-linecap: butt; stroke-linejoin: miter; stroke-miterlimit: 10; fill: #ebeef0; fill-rule: nonzero; opacity: 1;" transform="  matrix(1 0 0 1 0 0) "/>
  <rect x="291.57" y="149.42" rx="0" ry="0" width="60.63" height="41.8" style="stroke: none; stroke-width: 1; stroke-dasharray: none; stroke-linecap: butt; stroke-linejoin: miter; stroke-miterlimit: 10; fill: #0e0e0f; fill-rule: nonzero; opacity: 1;" transform=" matrix(1 0 0 1 0 0) "/>
  <rect x="272.77" y="98.31" rx="0" ry="0" width="98.22" height="51.1" style="stroke: none; stroke-width: 1; stroke-dasharray: none; stroke-linecap: butt; stroke-linejoin: miter; stroke-miterlimit: 10; fill: #0e0e0f; fill-rule: nonzero; opacity: 1;" transform=" matrix(1 0 0 1 0 0) "/>
  <path d="M 388.757 79.317 c 0 10.493 -8.523 18.998 -19.039 18.998 h -95.67 c -10.515 0 -19.039 -8.505 -19.039 -18.998 V 29.448 c 0 -10.493 8.523 -18.999 19.039 -18.999 h 95.67 c 10.516 0 19.039 8.507 19.039 18.999 V 79.317 z" style="stroke: none; stroke-width: 1; stroke-dasharray: none; stroke-linecap: butt; stroke-linejoin: miter; stroke-miterlimit: 10; fill: #ebeef0; fill-rule: nonzero; opacity: 1;" transform=" matrix(1 0 0 1 0 0) " stroke-linecap="round" />
  <path d="M 327.053 215.771 c -72.02 0 -130.612 58.593 -130.612 130.612 s 58.593 130.612 130.612 130.612 s 130.612 -58.593 130.612 -130.612 S 399.073 215.771 327.053 215.771 z M 327.053 456.098 c -60.497 0 -109.714 -49.218 -109.714 -109.714 s 49.217 -109.714 109.714 -109.714 s 109.714 49.218 109.714 109.714 S 387.549 456.098 327.053 456.098 z" style="stroke: none; stroke-width: 1; stroke-dasharray: none; stroke-linecap: butt; stroke-linejoin: miter; stroke-miterlimit: 10; fill: #1a191a; fill-rule: nonzero; opacity: 1;" transform=" matrix(1 0 0 1 0 0) " stroke-linecap="round" />
  <path d="M 327.053 263.837 c -45.516 0 -82.547 37.031 -82.547 82.547 s 37.031 82.547 82.547 82.547 s 82.547 -37.031 82.547 -82.547 S 372.569 263.837 327.053 263.837 z M 327.053 408.033 c -33.993 0 -61.649 -27.656 -61.649 -61.649 s 27.656 -61.649 61.649 -61.649 s 61.649 27.656 61.649 61.649 S 361.046 408.033 327.053 408.033 z" style="stroke: none; stroke-width: 1; stroke-dasharray: none; stroke-linecap: butt; stroke-linejoin: miter; stroke-miterlimit: 10; fill: #1a191a; fill-rule: nonzero; opacity: 1;" transform=" matrix(1 0 0 1 0 0) " stroke-linecap="round" />
  <path d="M 327.053 306.033 c -5.77 0 -10.449 4.679 -10.449 10.449 s 4.679 10.449 10.449 10.449 c 10.727 0 19.453 8.727 19.453 19.453 c 0 5.77 4.679 10.449 10.449 10.449 s 10.449 -4.679 10.449 -10.449 C 367.404 324.134 349.303 306.033 327.053 306.033 z" style="stroke: none; stroke-width: 1; stroke-dasharray: none; stroke-linecap: butt; stroke-linejoin: miter; stroke-miterlimit: 10; fill: #1a191a; fill-rule: nonzero; opacity: 1;" transform=" matrix(1 0 0 1 0 0) " stroke-linecap="round" />
  <path d="M 327.053 365.837 c -10.727 0 -19.453 -8.727 -19.453 -19.453 c 0 -5.77 -4.679 -10.449 -10.449 -10.449 c -5.77 0 -10.449 4.679 -10.449 10.449 c 0 22.25 18.101 40.351 40.351 40.351 c 5.77 0 10.449 -4.679 10.449 -10.449 C 337.502 370.516 332.823 365.837 327.053 365.837 z" style="stroke: none; stroke-width: 1; stroke-dasharray: none; stroke-linecap: butt; stroke-linejoin: miter; stroke-miterlimit: 10; fill: #1a191a; fill-rule: nonzero; opacity: 1;" transform=" matrix(1 0 0 1 0 0) " stroke-linecap="round" />
  <path d="M 282.178 76.299 h 79.412 c 5.77 0 10.449 -4.679 10.449 -10.449 s -4.679 -10.449 -10.449 -10.449 h -79.412 c -5.77 0 -10.449 4.679 -10.449 10.449 C 271.729 71.62 276.407 76.299 282.178 76.299 z" style="stroke: none; stroke-width: 1; stroke-dasharray: none; stroke-linecap: butt; stroke-linejoin: miter; stroke-miterlimit: 10; fill: #1a191a; fill-rule: nonzero; opacity: 1;" transform=" matrix(1 0 0 1 0 0) " stroke-linecap="round" />
  <path d="M 282.178 50.155 h 79.412 c 5.77 0 10.449 -4.679 10.449 -10.449 s -4.679 -10.449 -10.449 -10.449 h -79.412 c -5.77 0 -10.449 4.679 -10.449 10.449 S 276.407 50.155 282.178 50.155 z" style="stroke: none; stroke-width: 1; stroke-dasharray: none; stroke-linecap: butt; stroke-linejoin: miter; stroke-miterlimit: 10; fill: #1a191a; fill-rule: nonzero; opacity: 1;" transform=" matrix(1 0 0 1 0 0) " stroke-linecap="round" />
  <path d="M 438.891 180.767 h -76.245 v -20.898 h 8.348 c 5.77 0 10.449 -4.678 10.449 -10.449 v -43.089 c 10.441 -4.538 17.763 -14.936 17.763 -27.014 V 29.448 C 399.205 13.211 385.977 0 369.717 0 h -95.67 c -16.26 0 -29.488 13.211 -29.488 29.448 v 49.87 c 0 12.078 7.323 22.476 17.763 27.014 v 43.088 c 0 5.771 4.679 10.449 10.449 10.449 h 8.349 v 20.898 H 82.722 c -45.456 0 -82.449 36.934 -82.548 82.366 l -0.168 5.055 C 0.002 268.305 0 268.422 0 268.538 v 170.353 C 0 479.203 32.797 512 73.109 512 h 365.781 C 479.203 512 512 479.203 512 438.891 V 253.877 C 512 213.565 479.203 180.767 438.891 180.767 z M 283.223 138.971 v -30.207 h 77.322 v 30.207 h -8.348 h -60.626 H 283.223 z M 265.459 29.448 c 0 -4.715 3.854 -8.55 8.59 -8.55 h 95.67 c 4.737 0 8.59 3.836 8.59 8.55 v 49.87 c 0 4.715 -3.854 8.549 -8.59 8.549 h -95.67 c -4.737 0 -8.59 -3.835 -8.59 -8.549 V 29.448 z M 302.02 159.869 h 39.728 v 20.898 H 302.02 V 159.869 z M 73.109 491.102 c -28.79 0 -52.211 -23.421 -52.211 -52.211 V 268.712 l 0.168 -5.049 c 0.004 -0.116 0.006 -0.233 0.006 -0.349 c 0 -31.868 24.307 -58.167 55.357 -61.33 c 2.069 -0.21 4.169 -0.319 6.293 -0.319 h 9.438 c 28.79 0 52.211 23.421 52.211 52.211 v 185.014 c 0 28.79 -23.421 52.211 -52.211 52.211 L 73.109 491.102 L 73.109 491.102 z M 491.102 438.891 c 0 28.79 -23.421 52.211 -52.211 52.211 H 143.266 c 13.564 -13.28 22.003 -31.774 22.003 -52.211 V 253.877 c 0 -20.437 -8.439 -38.932 -22.003 -52.211 h 295.625 c 28.79 0 52.211 23.421 52.211 52.211 V 438.891 z" style="stroke: none; stroke-width: 1; stroke-dasharray: none; stroke-linecap: butt; stroke-linejoin: miter; stroke-miterlimit: 10; fill: #1a191a; fill-rule: nonzero; opacity: 1;" transform=" matrix(1 0 0 1 0 0) " stroke-linecap="round" />
  <path d="M 55.38 273.115 c -5.77 0 -10.449 4.678 -10.449 10.449 v 4.678 c 0 5.77 4.679 10.449 10.449 10.449 s 10.449 -4.679 10.449 -10.449 v -4.678 C 65.829 277.793 61.15 273.115 55.38 273.115 z" style="stroke: none; stroke-width: 1; stroke-dasharray: none; stroke-linecap: butt; stroke-linejoin: miter; stroke-miterlimit: 10; fill: #1a191a; fill-rule: nonzero; opacity: 1;" transform=" matrix(1 0 0 1 0 0) " stroke-linecap="round" />
  <path d="M 55.38 311.597 c -5.77 0 -10.449 4.678 -10.449 10.449 v 87.157 c 0 5.771 4.679 10.449 10.449 10.449 s 10.449 -4.678 10.449 -10.449 v -87.157 C 65.829 316.275 61.15 311.597 55.38 311.597 z" style="stroke: none; stroke-width: 1; stroke-dasharray: none; stroke-linecap: butt; stroke-linejoin: miter; stroke-miterlimit: 10; fill: #1a191a; fill-rule: nonzero; opacity: 1;" transform=" matrix(1 0 0 1 0 0) " stroke-linecap="round" />
</g>
<g style="stroke: none; stroke-width: 1; stroke-dasharray: none; stroke-linecap: butt; stroke-linejoin: miter; stroke-miterlimit: 10; fill: none; fill-rule: nonzero; opacity: 1;" transform="translate(10 13.280000000000001) scale(0.15 0.15)" >
  <polygon points="418.74,271.57 205.1,198.43 205.1,83.59 418.74,10.45 " style="stroke: none; stroke-width: 1; stroke-dasharray: none; stroke-linecap: butt; stroke-linejoin: miter; stroke-miterlimit: 10; fill: #1d1e1f; fill-rule: nonzero; opacity: 1;" transform="  matrix(1 0 0 1 0 0) "/>
  <rect x="152.61" y="99.5" rx="0" ry="0" width="52.48" height="83.02" style="stroke: none; stroke-width: 1; stroke-dasharray: none; stroke-linecap: butt; stroke-linejoin: miter; stroke-miterlimit: 10; fill: #e9ecf2; fill-rule: nonzero; opacity: 1;" transform=" matrix(1 0 0 1 0 0) "/>
  <path d="M 383.213 95.58 h 0.002 c 5.771 -0.001 10.448 -4.68 10.447 -10.451 l -0.001 -4.678 c -0.001 -5.77 -4.679 -10.447 -10.449 -10.447 c 0 0 -0.001 0 -0.002 0 c -5.771 0.001 -10.448 4.68 -10.447 10.451 l 0.001 4.678 C 372.765 90.904 377.443 95.58 383.213 95.58 z" style="stroke: none; stroke-width: 1; stroke-dasharray: none; stroke-linecap: butt; stroke-linejoin: miter; stroke-miterlimit: 10; fill: #141314; fill-rule: nonzero; opacity: 1;" transform=" matrix(1 0 0 1 0 0) " stroke-linecap="round" />
  <path d="M 383.213 108.486 c -5.771 0 -10.449 4.679 -10.449 10.449 v 72.859 c 0 5.77 4.678 10.449 10.449 10.449 s 10.449 -4.679 10.449 -10.449 v -72.859 C 393.662 113.164 388.983 108.486 383.213 108.486 z" style="stroke: none; stroke-width: 1; stroke-dasharray: none; stroke-linecap: butt; stroke-linejoin: miter; stroke-miterlimit: 10; fill: #141314; fill-rule: nonzero; opacity: 1;" transform=" matrix(1 0 0 1 0 0) " stroke-linecap="round" />
  <path d="M 424.813 1.947 c -2.745 -1.961 -6.267 -2.476 -9.459 -1.384 L 201.711 73.704 c -4.225 1.447 -7.064 5.42 -7.064 9.885 v 5.466 l -42.036 -0.002 l 0 0 c -2.771 0 -5.429 1.101 -7.388 3.06 c -1.96 1.959 -3.06 4.617 -3.06 7.388 v 31.061 h -15.986 v -15.26 c 0 -5.77 -4.678 -10.449 -10.449 -10.449 s -10.449 4.679 -10.449 10.449 v 51.417 c 0 5.77 4.678 10.449 10.449 10.449 s 10.449 -4.679 10.449 -10.449 v -15.259 h 15.986 v 31.061 c 0 5.771 4.678 10.449 10.449 10.449 h 42.036 v 192.437 L 85.874 494.163 c -4.08 4.079 -4.081 10.695 -0.001 14.776 c 2.041 2.041 4.714 3.061 7.388 3.061 s 5.348 -1.021 7.388 -3.06 l 56.371 -56.362 l 37.627 28.547 v 20.41 c 0 5.77 4.678 10.449 10.449 10.449 c 5.771 0 10.449 -4.679 10.449 -10.449 v -20.41 l 37.627 -28.547 l 56.373 56.362 c 2.041 2.041 4.713 3.06 7.387 3.06 c 2.674 0 5.349 -1.021 7.389 -3.061 c 4.08 -4.08 4.079 -10.696 -0.001 -14.776 L 215.544 385.406 V 213.051 l 199.81 68.405 c 1.103 0.377 2.246 0.563 3.383 0.563 c 2.151 0 4.281 -0.665 6.076 -1.948 c 2.744 -1.961 4.374 -5.127 4.374 -8.501 V 10.448 C 429.187 7.074 427.557 3.909 424.813 1.947 z M 163.059 109.949 l 31.587 0.002 v 62.118 h -31.587 V 109.949 z M 171.937 437.663 l 22.71 -22.707 v 39.938 L 171.937 437.663 z M 215.544 454.893 v -39.937 l 22.71 22.706 L 215.544 454.893 z M 408.29 256.95 l -192.745 -65.986 V 91.056 L 408.29 25.069 V 256.95 z" style="stroke: none; stroke-width: 1; stroke-dasharray: none; stroke-linecap: butt; stroke-linejoin: miter; stroke-miterlimit: 10; fill: #141314; fill-rule: nonzero; opacity: 1;" transform=" matrix(1 0 0 1 0 0) " stroke-linecap="round" />
</g>
  <g transform="translate(596.67 60.72) scale(0.99 0.99)">
   <text font-family="Neuropol" font-size="40" font-weight="normal" style="stroke: none; stroke-width: 1; stroke-dasharray: none; stroke-linecap: butt; stroke-linejoin: miter; stroke-miterlimit: 10; fill: #a164a1; fill-rule: nonzero; opacity: 1;" ><tspan x="-35.79" y="8.98" style="stroke: none; stroke-width: 0; stroke-dasharray: none; stroke-linecap: butt; stroke-linejoin: miter; stroke-miterlimit: 4; fill: #a164a1; fill-rule: ; opacity: 1;">M</tspan><tspan x="7.29" y="8.98" style="stroke: none; stroke-width: 0; stroke-dasharray: none; stroke-linecap: butt; stroke-linejoin: miter; stroke-miterlimit: 4; fill: #a164a1; fill-rule: ; opacity: 1;">E</tspan></text>
 </g>
  <g transform="translate(422.35 52.53) scale(1.05 1.03)">
   <text font-family="ADAMCG PRO" font-size="40" font-weight="normal" style="stroke: none; stroke-width: 1; stroke-dasharray: none; stroke-linecap: butt; stroke-linejoin: miter; stroke-miterlimit: 10; fill: #171517; fill-rule: nonzero; opacity: 1;" ><tspan x="-136.26" y="8.98" style="stroke: none; stroke-width: 0; stroke-dasharray: none; stroke-linecap: butt; stroke-linejoin: miter; stroke-miterlimit: 4; fill: #171517; fill-rule: ; opacity: 1;">P</tspan><tspan x="-113.84" y="8.98" style="stroke: none; stroke-width: 0; stroke-dasharray: none; stroke-linecap: butt; stroke-linejoin: miter; stroke-miterlimit: 4; fill: #171517; fill-rule: ; opacity: 1;">h</tspan><tspan x="-86.53" y="8.98" style="stroke: none; stroke-width: 0; stroke-dasharray: none; stroke-linecap: butt; stroke-linejoin: miter; stroke-miterlimit: 4; fill: #171517; fill-rule: ; opacity: 1;">o</tspan><tspan x="-52.59" y="8.98" style="stroke: none; stroke-width: 0; stroke-dasharray: none; stroke-linecap: butt; stroke-linejoin: miter; stroke-miterlimit: 4; fill: #171517; fill-rule: ; opacity: 1;">t</tspan><tspan x="-29.23" y="8.98" style="stroke: none; stroke-width: 0; stroke-dasharray: none; stroke-linecap: butt; stroke-linejoin: miter; stroke-miterlimit: 4; fill: #171517; fill-rule: ; opacity: 1;">o</tspan><tspan x="4.72" y="8.98" style="stroke: none; stroke-width: 0; stroke-dasharray: none; stroke-linecap: butt; stroke-linejoin: miter; stroke-miterlimit: 4; fill: #171517; fill-rule: ; opacity: 1;">g</tspan><tspan x="33.12" y="8.98" style="stroke: none; stroke-width: 0; stroke-dasharray: none; stroke-linecap: butt; stroke-linejoin: miter; stroke-miterlimit: 4; fill: #171517; fill-rule: ; opacity: 1;">r</tspan><tspan x="58.74" y="8.98" style="stroke: none; stroke-width: 0; stroke-dasharray: none; stroke-linecap: butt; stroke-linejoin: miter; stroke-miterlimit: 4; fill: #171517; fill-rule: ; opacity: 1;">a</tspan><tspan x="86.53" y="8.98" style="stroke: none; stroke-width: 0; stroke-dasharray: none; stroke-linecap: butt; stroke-linejoin: miter; stroke-miterlimit: 4; fill: #171517; fill-rule: ; opacity: 1;">p</tspan><tspan x="108.96" y="8.98" style="stroke: none; stroke-width: 0; stroke-dasharray: none; stroke-linecap: butt; stroke-linejoin: miter; stroke-miterlimit: 4; fill: #171517; fill-rule: ; opacity: 1;">h</tspan></text>
 </g>
  <g transform="translate(387.59 113.99)">
   <text font-family="Top Secret" font-size="40" font-weight="normal" style="stroke: none; stroke-width: 1; stroke-dasharray: none; stroke-linecap: butt; stroke-linejoin: miter; stroke-miterlimit: 10; fill: #000000; fill-rule: nonzero; opacity: 1;" ><tspan x="-111.34" y="8.98" style="stroke: none; stroke-width: 0; stroke-dasharray: none; stroke-linecap: butt; stroke-linejoin: miter; stroke-miterlimit: 4; fill: #000000; fill-rule: ; opacity: 1;">P</tspan><tspan x="-84.99" y="8.98" style="stroke: none; stroke-width: 0; stroke-dasharray: none; stroke-linecap: butt; stroke-linejoin: miter; stroke-miterlimit: 4; fill: #000000; fill-rule: ; opacity: 1;">O</tspan><tspan x="-58.27" y="8.98" style="stroke: none; stroke-width: 0; stroke-dasharray: none; stroke-linecap: butt; stroke-linejoin: miter; stroke-miterlimit: 4; fill: #000000; fill-rule: ; opacity: 1;">R</tspan><tspan x="-29.85" y="8.98" style="stroke: none; stroke-width: 0; stroke-dasharray: none; stroke-linecap: butt; stroke-linejoin: miter; stroke-miterlimit: 4; fill: #000000; fill-rule: ; opacity: 1;">T</tspan><tspan x="-3.49" y="8.98" style="stroke: none; stroke-width: 0; stroke-dasharray: none; stroke-linecap: butt; stroke-linejoin: miter; stroke-miterlimit: 4; fill: #000000; fill-rule: ; opacity: 1;">F</tspan><tspan x="19.97" y="8.98" style="stroke: none; stroke-width: 0; stroke-dasharray: none; stroke-linecap: butt; stroke-linejoin: miter; stroke-miterlimit: 4; fill: #000000; fill-rule: ; opacity: 1;">O</tspan><tspan x="46.69" y="8.98" style="stroke: none; stroke-width: 0; stroke-dasharray: none; stroke-linecap: butt; stroke-linejoin: miter; stroke-miterlimit: 4; fill: #000000; fill-rule: ; opacity: 1;">L</tspan><tspan x="69.74" y="8.98" style="stroke: none; stroke-width: 0; stroke-dasharray: none; stroke-linecap: butt; stroke-linejoin: miter; stroke-miterlimit: 4; fill: #000000; fill-rule: ; opacity: 1;">I</tspan><tspan x="84.62" y="8.98" style="stroke: none; stroke-width: 0; stroke-dasharray: none; stroke-linecap: butt; stroke-linejoin: miter; stroke-miterlimit: 4; fill: #000000; fill-rule: ; opacity: 1;">O</tspan></text>
 </g>
</svg>